<svg width="123" height="38" viewBox="0 0 123 38" fill="none" xmlns="http://www.w3.org/2000/svg">
<path d="M18.576 22.104L17.568 22.212C17.424 22.188 17.268 22.2 17.1 22.248C16.956 22.272 16.776 22.284 16.56 22.284C16.32 22.284 16.116 22.284 15.948 22.284C15.78 22.26 15.624 22.236 15.48 22.212L14.364 22.104C14.268 21.528 14.184 21 14.112 20.52C14.04 20.016 14.004 19.44 14.004 18.792C14.004 18.576 14.028 18.456 14.076 18.432C14.124 18.408 14.148 18.348 14.148 18.252C14.148 18.156 14.124 17.964 14.076 17.676C14.052 17.388 14.016 17.088 13.968 16.776C13.464 16.8 12.948 16.824 12.42 16.848C11.916 16.848 11.412 16.848 10.908 16.848C10.596 16.848 10.248 16.848 9.864 16.848C9.504 16.848 9.156 16.86 8.82 16.884C8.484 16.884 8.172 16.908 7.884 16.956C7.62 17.004 7.416 17.1 7.272 17.244C7.056 17.772 6.864 18.252 6.696 18.684C6.528 19.116 6.36 19.536 6.192 19.944C6.048 20.328 5.892 20.724 5.724 21.132C5.556 21.54 5.376 21.996 5.184 22.5H1.368C1.32 22.332 1.284 22.188 1.26 22.068C1.236 21.924 1.212 21.744 1.188 21.528C1.284 21.216 1.368 20.928 1.44 20.664C1.536 20.4 1.632 20.136 1.728 19.872L2.268 18.18C2.508 17.7 2.7 17.304 2.844 16.992C3.012 16.656 3.228 16.248 3.492 15.768C3.612 15.504 3.804 15.192 4.068 14.832C4.356 14.472 4.656 13.884 4.968 13.068C5.304 12.156 5.652 11.352 6.012 10.656C6.396 9.96 6.792 9.312 7.2 8.712C7.608 8.112 8.04 7.512 8.496 6.912C8.952 6.288 9.432 5.616 9.936 4.896H10.188C10.284 4.896 10.38 4.896 10.476 4.896C10.62 4.92 10.752 4.932 10.872 4.932C11.016 4.932 11.208 4.932 11.448 4.932C11.784 4.956 12.072 4.98 12.312 5.004C12.576 5.004 12.828 5.016 13.068 5.04C13.308 5.04 13.548 5.052 13.788 5.076C14.028 5.076 14.304 5.076 14.616 5.076C14.64 5.124 14.724 5.268 14.868 5.508C15.036 5.724 15.156 5.88 15.228 5.976C15.516 6.48 15.708 7.02 15.804 7.596C15.9 8.172 15.984 8.676 16.056 9.108C16.08 9.3 16.104 9.552 16.128 9.864C16.176 10.152 16.224 10.44 16.272 10.728C16.32 11.016 16.38 11.292 16.452 11.556C16.524 11.82 16.62 12.024 16.74 12.168C16.932 13.152 17.1 14.052 17.244 14.868C17.388 15.684 17.52 16.464 17.64 17.208C17.784 17.952 17.928 18.72 18.072 19.512C18.216 20.28 18.384 21.144 18.576 22.104ZM13.644 14.58C13.596 14.316 13.56 14.088 13.536 13.896C13.536 13.68 13.524 13.464 13.5 13.248L13.428 11.952C13.38 11.568 13.272 11.172 13.104 10.764C12.936 10.356 12.816 9.864 12.744 9.288C12.672 9.264 12.636 9.228 12.636 9.18V9.144H12.528C12.504 9.144 12.456 9.144 12.384 9.144C12.312 9.12 12.228 9.108 12.132 9.108C12.012 9.324 11.868 9.504 11.7 9.648C11.556 9.792 11.412 9.924 11.268 10.044C10.812 10.452 10.416 10.992 10.08 11.664C9.744 12.312 9.456 12.96 9.216 13.608L8.712 14.688V14.724C8.712 14.748 8.712 14.772 8.712 14.796C8.736 14.796 8.748 14.808 8.748 14.832C9.252 14.832 9.804 14.808 10.404 14.76C10.572 14.76 10.788 14.772 11.052 14.796C11.34 14.796 11.628 14.796 11.916 14.796H13.464L13.644 14.58ZM33.0148 19.62L32.4028 19.404C32.2588 19.356 32.1148 19.296 31.9708 19.224C31.8508 19.152 31.6948 19.056 31.5028 18.936H31.3948C31.3708 18.888 31.3588 18.876 31.3588 18.9C31.3588 18.924 31.3348 18.888 31.2868 18.792H31.1068L30.2428 17.82C30.1468 17.772 30.0628 17.676 29.9908 17.532C29.9428 17.388 29.8828 17.22 29.8108 17.028C29.7628 16.836 29.6908 16.644 29.5948 16.452C29.5228 16.26 29.4148 16.104 29.2708 15.984C29.1268 15.912 29.0188 15.816 28.9468 15.696C28.8748 15.576 28.8028 15.456 28.7308 15.336C28.6588 15.192 28.5748 15.072 28.4788 14.976C28.4068 14.856 28.2748 14.76 28.0828 14.688C28.0588 14.712 27.9988 14.724 27.9028 14.724C27.7108 14.724 27.6148 14.628 27.6148 14.436C27.6148 14.34 27.6268 14.22 27.6508 14.076C27.6988 13.932 27.7228 13.776 27.7228 13.608C27.7228 13.32 27.6268 13.068 27.4348 12.852L26.9668 11.952H26.4988C26.4508 12.264 26.4268 12.552 26.4268 12.816C26.4268 13.056 26.4268 13.296 26.4268 13.536V14.4C26.4268 14.76 26.4148 15.132 26.3908 15.516C26.3908 15.9 26.3668 16.332 26.3188 16.812C26.3188 16.932 26.2708 17.22 26.1748 17.676C26.0788 18.108 25.9708 18.588 25.8508 19.116C25.7308 19.62 25.6228 20.136 25.5268 20.664C25.4548 21.168 25.4188 21.552 25.4188 21.816L25.1668 21.996H24.5908L22.6108 21.528C22.4428 21.48 22.3348 21.24 22.2868 20.808C22.2388 20.352 22.2148 19.836 22.2148 19.26C22.2148 18.708 22.2148 18.168 22.2148 17.64C22.2388 17.088 22.2508 16.704 22.2508 16.488L22.5748 12.852L22.1788 12.384V6.336H26.7868L26.8228 6.552L27.4708 6.444L29.7028 10.98L29.7388 11.196L30.0988 11.592V11.844L30.6388 13.14L31.9348 14.472L32.1148 14.94L33.8428 13.536L34.6348 12.168V11.916L35.1028 11.484L35.1748 11.232L38.2708 6.408H38.5948V6.156H42.5548L42.9508 7.668L43.1668 9.036C42.9268 9.396 42.7828 9.66 42.7348 9.828C42.7108 9.972 42.6988 10.068 42.6988 10.116L42.3748 10.836C42.4468 11.532 42.4948 12.108 42.5188 12.564C42.5668 12.996 42.5908 13.416 42.5908 13.824C42.5908 14.232 42.5788 14.64 42.5548 15.048C42.5308 15.456 42.4828 15.96 42.4108 16.56C42.4108 16.68 42.3748 16.968 42.3028 17.424C42.2308 17.88 42.1588 18.384 42.0868 18.936C42.0388 19.464 41.9788 19.98 41.9068 20.484C41.8348 20.988 41.7988 21.348 41.7988 21.564L41.6188 21.816H41.0068L39.0268 21.312C38.8828 21.264 38.7748 21.012 38.7028 20.556C38.6548 20.1 38.6308 19.596 38.6308 19.044C38.6308 18.468 38.6428 17.916 38.6668 17.388C38.6908 16.86 38.7028 16.488 38.7028 16.272L38.6668 12.888C38.4268 13.2 38.2708 13.5 38.1988 13.788C38.1508 14.076 38.1268 14.328 38.1268 14.544C38.1268 14.736 38.1028 14.904 38.0548 15.048C38.0068 15.168 37.8868 15.228 37.6948 15.228C37.5988 15.228 37.5388 15.216 37.5148 15.192C37.2748 15.24 37.0948 15.336 36.9748 15.48C36.8548 15.6 36.7468 15.732 36.6508 15.876C36.5548 15.996 36.4588 16.128 36.3628 16.272C36.2668 16.392 36.1348 16.476 35.9668 16.524C35.7028 16.692 35.5108 16.872 35.3908 17.064C35.2708 17.256 35.1748 17.448 35.1028 17.64C35.0308 17.832 34.9588 18.012 34.8868 18.18C34.8388 18.324 34.7548 18.444 34.6348 18.54L33.4108 19.548H33.3748C33.3508 19.548 33.3148 19.548 33.2668 19.548C33.2428 19.524 33.1948 19.512 33.1228 19.512C33.0748 19.56 33.0388 19.584 33.0148 19.584V19.62ZM62.631 22.104L61.623 22.212C61.479 22.188 61.323 22.2 61.155 22.248C61.011 22.272 60.831 22.284 60.615 22.284C60.375 22.284 60.171 22.284 60.003 22.284C59.835 22.26 59.679 22.236 59.535 22.212L58.419 22.104C58.323 21.528 58.239 21 58.167 20.52C58.095 20.016 58.059 19.44 58.059 18.792C58.059 18.576 58.083 18.456 58.131 18.432C58.179 18.408 58.203 18.348 58.203 18.252C58.203 18.156 58.179 17.964 58.131 17.676C58.107 17.388 58.071 17.088 58.023 16.776C57.519 16.8 57.003 16.824 56.475 16.848C55.971 16.848 55.467 16.848 54.963 16.848C54.651 16.848 54.303 16.848 53.919 16.848C53.559 16.848 53.211 16.86 52.875 16.884C52.539 16.884 52.227 16.908 51.939 16.956C51.675 17.004 51.471 17.1 51.327 17.244C51.111 17.772 50.919 18.252 50.751 18.684C50.583 19.116 50.415 19.536 50.247 19.944C50.103 20.328 49.947 20.724 49.779 21.132C49.611 21.54 49.431 21.996 49.239 22.5H45.423C45.375 22.332 45.339 22.188 45.315 22.068C45.291 21.924 45.267 21.744 45.243 21.528C45.339 21.216 45.423 20.928 45.495 20.664C45.591 20.4 45.687 20.136 45.783 19.872L46.323 18.18C46.563 17.7 46.755 17.304 46.899 16.992C47.067 16.656 47.283 16.248 47.547 15.768C47.667 15.504 47.859 15.192 48.123 14.832C48.411 14.472 48.711 13.884 49.023 13.068C49.359 12.156 49.707 11.352 50.067 10.656C50.451 9.96 50.847 9.312 51.255 8.712C51.663 8.112 52.095 7.512 52.551 6.912C53.007 6.288 53.487 5.616 53.991 4.896H54.243C54.339 4.896 54.435 4.896 54.531 4.896C54.675 4.92 54.807 4.932 54.927 4.932C55.071 4.932 55.263 4.932 55.503 4.932C55.839 4.956 56.127 4.98 56.367 5.004C56.631 5.004 56.883 5.016 57.123 5.04C57.363 5.04 57.603 5.052 57.843 5.076C58.083 5.076 58.359 5.076 58.671 5.076C58.695 5.124 58.779 5.268 58.923 5.508C59.091 5.724 59.211 5.88 59.283 5.976C59.571 6.48 59.763 7.02 59.859 7.596C59.955 8.172 60.039 8.676 60.111 9.108C60.135 9.3 60.159 9.552 60.183 9.864C60.231 10.152 60.279 10.44 60.327 10.728C60.375 11.016 60.435 11.292 60.507 11.556C60.579 11.82 60.675 12.024 60.795 12.168C60.987 13.152 61.155 14.052 61.299 14.868C61.443 15.684 61.575 16.464 61.695 17.208C61.839 17.952 61.983 18.72 62.127 19.512C62.271 20.28 62.439 21.144 62.631 22.104ZM57.699 14.58C57.651 14.316 57.615 14.088 57.591 13.896C57.591 13.68 57.579 13.464 57.555 13.248L57.483 11.952C57.435 11.568 57.327 11.172 57.159 10.764C56.991 10.356 56.871 9.864 56.799 9.288C56.727 9.264 56.691 9.228 56.691 9.18V9.144H56.583C56.559 9.144 56.511 9.144 56.439 9.144C56.367 9.12 56.283 9.108 56.187 9.108C56.067 9.324 55.923 9.504 55.755 9.648C55.611 9.792 55.467 9.924 55.323 10.044C54.867 10.452 54.471 10.992 54.135 11.664C53.799 12.312 53.511 12.96 53.271 13.608L52.767 14.688V14.724C52.767 14.748 52.767 14.772 52.767 14.796C52.791 14.796 52.803 14.808 52.803 14.832C53.307 14.832 53.859 14.808 54.459 14.76C54.627 14.76 54.843 14.772 55.107 14.796C55.395 14.796 55.683 14.796 55.971 14.796H57.519L57.699 14.58ZM79.1938 22.068C78.8578 22.116 78.5938 22.152 78.4018 22.176C78.2338 22.176 78.0058 22.176 77.7178 22.176C77.4778 22.176 77.2498 22.176 77.0338 22.176C76.8418 22.152 76.6618 22.128 76.4938 22.104L75.2698 21.996C74.4058 22.068 73.6138 22.128 72.8938 22.176C72.1978 22.224 71.5138 22.26 70.8418 22.284C70.1938 22.308 69.5098 22.344 68.7898 22.392C68.0938 22.416 67.3138 22.452 66.4498 22.5C66.3538 22.5 66.2698 22.488 66.1978 22.464C66.1498 22.44 66.0898 22.404 66.0178 22.356H64.9378C64.8898 22.092 64.8538 21.852 64.8298 21.636C64.8058 21.42 64.7938 21.168 64.7938 20.88L65.2978 20.232C65.6578 19.8 65.9458 19.416 66.1618 19.08C66.4018 18.744 66.7018 18.324 67.0618 17.82C67.4938 17.268 67.8778 16.764 68.2138 16.308C68.5498 15.828 68.8618 15.372 69.1498 14.94C69.4618 14.508 69.7858 14.088 70.1218 13.68C70.4818 13.272 70.9138 12.852 71.4178 12.42C71.8258 12.108 72.1738 11.784 72.4618 11.448C72.7498 11.088 73.0138 10.74 73.2538 10.404C73.4938 10.044 73.7338 9.696 73.9738 9.36C74.2138 9 74.4898 8.628 74.8018 8.244C74.5618 8.244 74.2018 8.244 73.7218 8.244C73.2418 8.22 72.7138 8.196 72.1378 8.172C71.5618 8.124 70.9498 8.088 70.3018 8.064C69.6778 8.016 69.0658 7.968 68.4658 7.92C68.2018 7.92 67.8418 7.932 67.3858 7.956C66.9298 7.956 66.5818 7.836 66.3418 7.596L66.2698 6.66C66.2458 6.516 66.2218 6.372 66.1978 6.228C66.1978 6.06 66.1978 5.892 66.1978 5.724C66.3178 5.676 66.4138 5.664 66.4858 5.688C66.5578 5.688 66.6898 5.64 66.8818 5.544H73.6858C74.2858 5.544 74.8978 5.544 75.5218 5.544C76.1698 5.52 76.8898 5.508 77.6818 5.508L78.0418 5.652C78.1138 5.676 78.1738 5.7 78.2218 5.724C78.2938 5.748 78.3778 5.772 78.4738 5.796L78.9058 6.984C78.9778 7.2 79.0378 7.404 79.0858 7.596C79.1578 7.764 79.2538 7.956 79.3738 8.172C79.0138 8.58 78.6418 9 78.2578 9.432C77.8738 9.84 77.6098 10.272 77.4658 10.728L77.3578 11.124L74.9458 14.868C74.5858 15.252 74.2858 15.6 74.0458 15.912C73.8058 16.2 73.5658 16.5 73.3258 16.812C73.1818 16.956 73.0138 17.136 72.8218 17.352C72.6298 17.568 72.4378 17.796 72.2458 18.036C72.0778 18.252 71.9218 18.48 71.7778 18.72C71.6578 18.936 71.5978 19.14 71.5978 19.332C71.7658 19.308 71.9098 19.296 72.0298 19.296C72.1738 19.272 72.2938 19.26 72.3898 19.26L72.9658 19.152L73.5418 19.26C73.7578 19.308 73.9618 19.332 74.1538 19.332C74.4898 19.332 74.7898 19.32 75.0538 19.296C75.3178 19.272 75.6418 19.236 76.0258 19.188C76.5298 19.26 76.9138 19.32 77.1778 19.368C77.4658 19.392 77.7178 19.428 77.9338 19.476C78.1738 19.524 78.4258 19.584 78.6898 19.656C78.9778 19.704 79.3738 19.788 79.8778 19.908V21.204C79.6378 21.468 79.4698 21.672 79.3738 21.816C79.3018 21.936 79.2418 22.02 79.1938 22.068ZM84.1095 13.212C84.1575 12.468 84.3375 11.796 84.6495 11.196C84.9855 10.596 85.3815 10.08 85.8375 9.648C86.3175 9.192 86.8455 8.808 87.4215 8.496C88.0215 8.184 88.6215 7.932 89.2215 7.74L92.6775 7.128C92.7015 7.296 92.8095 7.404 93.0015 7.452C93.2175 7.476 93.4455 7.488 93.6855 7.488C93.8775 7.488 94.0815 7.476 94.2975 7.452C94.5375 7.428 94.7175 7.416 94.8375 7.416C95.0055 7.416 95.1135 7.452 95.1615 7.524C96.6495 8.268 97.7655 9.336 98.5095 10.728C99.2775 12.096 99.6615 13.644 99.6615 15.372V15.696C99.2055 16.56 98.6295 17.304 97.9335 17.928C97.2615 18.528 96.5895 18.948 95.9175 19.188L91.9935 20.664C91.7535 20.832 91.5495 20.952 91.3815 21.024C91.2135 21.072 91.0455 21.12 90.8775 21.168C90.7335 21.192 90.5655 21.204 90.3735 21.204C90.2055 21.204 89.9895 21.204 89.7255 21.204L84.6855 19.512L84.2895 18.936C84.0975 18.528 83.9775 18.132 83.9295 17.748C83.9055 17.364 83.8935 16.968 83.8935 16.56C83.8935 16.032 83.9055 15.504 83.9295 14.976C83.9775 14.448 84.0375 13.86 84.1095 13.212ZM92.8935 10.728C92.6295 10.68 92.3895 10.656 92.1735 10.656C91.8375 10.656 91.5375 10.74 91.2735 10.908C91.0095 11.052 90.7575 11.232 90.5175 11.448C90.2775 11.64 90.0495 11.844 89.8335 12.06C89.6415 12.252 89.4495 12.42 89.2575 12.564L89.0415 15.804L90.1935 16.992H90.8415L95.8455 15.84L97.1055 13.86C96.9615 13.26 96.7335 12.792 96.4215 12.456C96.1335 12.12 95.7975 11.856 95.4135 11.664C95.0535 11.448 94.6455 11.28 94.1895 11.16C93.7335 11.04 93.3015 10.896 92.8935 10.728ZM113.725 18.792L112.825 17.532C112.657 17.292 112.429 17.04 112.141 16.776C111.853 16.512 111.577 16.272 111.313 16.056C111.193 15.984 111.073 15.876 110.953 15.732C110.857 15.564 110.749 15.396 110.629 15.228C110.509 15.06 110.377 14.904 110.233 14.76C110.113 14.592 109.981 14.484 109.837 14.436C109.789 14.436 109.729 14.436 109.657 14.436C109.537 14.436 109.453 14.388 109.405 14.292C109.381 14.196 109.345 14.076 109.297 13.932C109.273 13.764 109.225 13.596 109.153 13.428C109.081 13.236 108.949 13.044 108.757 12.852L108.253 11.952H107.821C107.773 12.264 107.749 12.552 107.749 12.816C107.749 13.056 107.749 13.296 107.749 13.536V14.4C107.749 14.76 107.737 15.132 107.713 15.516C107.713 15.9 107.677 16.332 107.605 16.812C107.605 16.932 107.557 17.22 107.461 17.676C107.389 18.108 107.293 18.588 107.173 19.116C107.053 19.62 106.945 20.136 106.849 20.664C106.753 21.168 106.705 21.552 106.705 21.816L106.489 21.996H105.877L103.897 21.528C103.753 21.48 103.657 21.24 103.609 20.808C103.561 20.352 103.537 19.836 103.537 19.26C103.537 18.708 103.549 18.168 103.573 17.64C103.597 17.088 103.609 16.704 103.609 16.488L103.861 12.852L103.465 12.384V7.056L104.185 6.336L106.633 6.768L108.793 6.408L110.989 10.296L111.061 10.584L112.321 12.42L114.301 14.472L114.373 14.688H115.237V6.408L115.273 6.156H119.269L119.629 7.668L119.845 9.036C119.605 9.396 119.473 9.66 119.449 9.828C119.425 9.972 119.413 10.068 119.413 10.116L119.017 10.836C119.113 11.532 119.185 12.108 119.233 12.564C119.281 12.996 119.305 13.416 119.305 13.824C119.305 14.448 119.233 15.456 119.089 16.848C118.969 18.216 118.909 19.788 118.909 21.564L118.657 21.816H118.081L116.029 21.312C115.789 21.216 115.669 21.18 115.669 21.204V21.06C115.669 21.036 115.669 20.988 115.669 20.916C115.669 20.82 115.669 20.724 115.669 20.628C115.573 20.58 115.405 20.364 115.165 19.98C114.949 19.596 114.613 19.248 114.157 18.936H114.049C114.025 18.888 114.001 18.864 113.977 18.864C113.977 18.864 113.965 18.852 113.941 18.828C113.917 18.828 113.905 18.816 113.905 18.792H113.725Z" fill="black"/>
<path d="M7.02 34.5V23.61H8.04V34.5H7.02ZM16.1569 27.48V34.5H15.1369V33.33C14.8969 33.78 14.5769 34.13 14.1769 34.38C13.7869 34.62 13.3319 34.74 12.8119 34.74C12.3219 34.74 11.8669 34.64 11.4469 34.44C11.0369 34.24 10.7069 33.945 10.4569 33.555C10.2169 33.165 10.0969 32.705 10.0969 32.175V27.48H11.1169V31.725C11.1169 33.115 11.7369 33.81 12.9769 33.81C13.6969 33.81 14.2369 33.555 14.5969 33.045C14.9569 32.535 15.1369 31.85 15.1369 30.99V27.48H16.1569ZM23.5535 34.5H22.3835L20.5535 31.575L18.7235 34.5H17.5835L19.8335 30.9L17.7185 27.48H18.8735L20.5685 30.24L22.3535 27.48H23.4785L21.2735 30.885L23.5535 34.5ZM31.1422 27.48V34.5H30.1222V33.33C29.8822 33.78 29.5622 34.13 29.1622 34.38C28.7722 34.62 28.3172 34.74 27.7972 34.74C27.3072 34.74 26.8522 34.64 26.4322 34.44C26.0222 34.24 25.6922 33.945 25.4422 33.555C25.2022 33.165 25.0822 32.705 25.0822 32.175V27.48H26.1022V31.725C26.1022 33.115 26.7222 33.81 27.9622 33.81C28.6822 33.81 29.2222 33.555 29.5822 33.045C29.9422 32.535 30.1222 31.85 30.1222 30.99V27.48H31.1422ZM36.4839 27.24C36.7239 27.24 36.9539 27.275 37.1739 27.345V28.275C36.9639 28.175 36.7339 28.125 36.4839 28.125C36.0539 28.125 35.6539 28.245 35.2839 28.485C34.9139 28.725 34.6139 29.075 34.3839 29.535C34.1639 29.985 34.0539 30.52 34.0539 31.14V34.5H33.0339V27.48H34.0539V28.89C34.3239 28.37 34.6639 27.965 35.0739 27.675C35.4939 27.385 35.9639 27.24 36.4839 27.24ZM42.9469 27.48H43.9069L40.1119 37.5H39.0919L40.2019 34.635L37.3219 27.48H38.3869L40.7119 33.3L42.9469 27.48ZM51.225 27.24C51.855 27.24 52.425 27.395 52.935 27.705C53.445 28.015 53.845 28.44 54.135 28.98C54.425 29.51 54.57 30.105 54.57 30.765C54.57 30.955 54.565 31.1 54.555 31.2H48.78C48.82 31.92 49.055 32.535 49.485 33.045C49.915 33.555 50.5 33.81 51.24 33.81C51.84 33.81 52.335 33.7 52.725 33.48C53.125 33.25 53.445 32.935 53.685 32.535L54.495 33.075C54.165 33.595 53.73 34.005 53.19 34.305C52.65 34.595 52.01 34.74 51.27 34.74C50.59 34.74 49.985 34.58 49.455 34.26C48.925 33.94 48.51 33.495 48.21 32.925C47.91 32.355 47.76 31.71 47.76 30.99C47.76 30.27 47.905 29.625 48.195 29.055C48.495 28.485 48.905 28.04 49.425 27.72C49.955 27.4 50.555 27.24 51.225 27.24ZM53.55 30.36C53.45 29.63 53.205 29.085 52.815 28.725C52.425 28.355 51.895 28.17 51.225 28.17C50.575 28.17 50.04 28.38 49.62 28.8C49.21 29.21 48.95 29.73 48.84 30.36H53.55ZM60.6768 34.5H59.5068L57.6768 31.575L55.8468 34.5H54.7068L56.9568 30.9L54.8418 27.48H55.9968L57.6918 30.24L59.4768 27.48H60.6018L58.3968 30.885L60.6768 34.5ZM65.1305 27.24C65.8005 27.24 66.4005 27.4 66.9305 27.72C67.4605 28.04 67.8755 28.485 68.1755 29.055C68.4755 29.625 68.6255 30.275 68.6255 31.005C68.6255 31.725 68.4755 32.37 68.1755 32.94C67.8855 33.5 67.4755 33.94 66.9455 34.26C66.4255 34.58 65.8305 34.74 65.1605 34.74C64.6505 34.74 64.1805 34.63 63.7505 34.41C63.3305 34.18 62.9755 33.86 62.6855 33.45V37.5H61.6655V27.48H62.6855V28.515C62.9755 28.115 63.3305 27.805 63.7505 27.585C64.1705 27.355 64.6305 27.24 65.1305 27.24ZM65.1605 33.81C65.6305 33.81 66.0505 33.69 66.4205 33.45C66.7905 33.21 67.0805 32.88 67.2905 32.46C67.5005 32.03 67.6055 31.545 67.6055 31.005C67.6055 30.455 67.5005 29.965 67.2905 29.535C67.0805 29.105 66.7905 28.77 66.4205 28.53C66.0505 28.29 65.6305 28.17 65.1605 28.17C64.6805 28.17 64.2505 28.29 63.8705 28.53C63.5005 28.77 63.2105 29.105 63.0005 29.535C62.7905 29.965 62.6855 30.45 62.6855 30.99C62.6855 31.53 62.7905 32.015 63.0005 32.445C63.2105 32.875 63.5005 33.21 63.8705 33.45C64.2505 33.69 64.6805 33.81 65.1605 33.81ZM72.6387 27.24C73.2687 27.24 73.8387 27.395 74.3487 27.705C74.8587 28.015 75.2587 28.44 75.5487 28.98C75.8387 29.51 75.9837 30.105 75.9837 30.765C75.9837 30.955 75.9787 31.1 75.9687 31.2H70.1937C70.2337 31.92 70.4687 32.535 70.8987 33.045C71.3287 33.555 71.9137 33.81 72.6537 33.81C73.2537 33.81 73.7487 33.7 74.1387 33.48C74.5387 33.25 74.8587 32.935 75.0987 32.535L75.9087 33.075C75.5787 33.595 75.1437 34.005 74.6037 34.305C74.0637 34.595 73.4237 34.74 72.6837 34.74C72.0037 34.74 71.3987 34.58 70.8687 34.26C70.3387 33.94 69.9237 33.495 69.6237 32.925C69.3237 32.355 69.1737 31.71 69.1737 30.99C69.1737 30.27 69.3187 29.625 69.6087 29.055C69.9087 28.485 70.3187 28.04 70.8387 27.72C71.3687 27.4 71.9687 27.24 72.6387 27.24ZM74.9637 30.36C74.8637 29.63 74.6187 29.085 74.2287 28.725C73.8387 28.355 73.3087 28.17 72.6387 28.17C71.9887 28.17 71.4537 28.38 71.0337 28.8C70.6237 29.21 70.3637 29.73 70.2537 30.36H74.9637ZM83.5645 23.61V34.5H82.5445V33.465C82.2545 33.865 81.8995 34.18 81.4795 34.41C81.0595 34.63 80.5995 34.74 80.0995 34.74C79.4295 34.74 78.8295 34.58 78.2995 34.26C77.7695 33.94 77.3545 33.495 77.0545 32.925C76.7545 32.355 76.6045 31.705 76.6045 30.975C76.6045 30.255 76.7495 29.615 77.0395 29.055C77.3395 28.485 77.7495 28.04 78.2695 27.72C78.7995 27.4 79.3995 27.24 80.0695 27.24C80.5795 27.24 81.0445 27.355 81.4645 27.585C81.8945 27.805 82.2545 28.12 82.5445 28.53V23.61H83.5645ZM80.0695 33.81C80.5495 33.81 80.9745 33.69 81.3445 33.45C81.7245 33.21 82.0195 32.875 82.2295 32.445C82.4395 32.015 82.5445 31.53 82.5445 30.99C82.5445 30.45 82.4395 29.965 82.2295 29.535C82.0195 29.105 81.7245 28.77 81.3445 28.53C80.9745 28.29 80.5495 28.17 80.0695 28.17C79.5995 28.17 79.1795 28.29 78.8095 28.53C78.4395 28.77 78.1495 29.105 77.9395 29.535C77.7295 29.955 77.6245 30.435 77.6245 30.975C77.6245 31.525 77.7295 32.015 77.9395 32.445C78.1495 32.875 78.4395 33.21 78.8095 33.45C79.1795 33.69 79.5995 33.81 80.0695 33.81ZM85.5527 34.5V27.48H86.5727V34.5H85.5527ZM86.0627 26.115C85.8327 26.115 85.6377 26.035 85.4777 25.875C85.3277 25.715 85.2527 25.52 85.2527 25.29C85.2527 25.07 85.3277 24.885 85.4777 24.735C85.6377 24.575 85.8327 24.495 86.0627 24.495C86.2827 24.495 86.4727 24.575 86.6327 24.735C86.7927 24.885 86.8727 25.075 86.8727 25.305C86.8727 25.525 86.7927 25.715 86.6327 25.875C86.4727 26.035 86.2827 26.115 86.0627 26.115ZM88.9364 34.5V28.41H87.7364V27.48H88.9364V25.155H89.9564V27.48H91.5764V28.41H89.9564V34.5H88.9364ZM92.7973 34.5V27.48H93.8173V34.5H92.7973ZM93.3073 26.115C93.0773 26.115 92.8823 26.035 92.7223 25.875C92.5723 25.715 92.4973 25.52 92.4973 25.29C92.4973 25.07 92.5723 24.885 92.7223 24.735C92.8823 24.575 93.0773 24.495 93.3073 24.495C93.5273 24.495 93.7173 24.575 93.8773 24.735C94.0373 24.885 94.1173 25.075 94.1173 25.305C94.1173 25.525 94.0373 25.715 93.8773 25.875C93.7173 26.035 93.5273 26.115 93.3073 26.115ZM98.8659 34.74C98.1959 34.74 97.5959 34.58 97.0659 34.26C96.5359 33.94 96.1209 33.495 95.8209 32.925C95.5209 32.345 95.3709 31.695 95.3709 30.975C95.3709 30.255 95.5159 29.615 95.8059 29.055C96.1059 28.485 96.5159 28.04 97.0359 27.72C97.5659 27.4 98.1659 27.24 98.8359 27.24C99.5059 27.24 100.106 27.4 100.636 27.72C101.166 28.04 101.581 28.485 101.881 29.055C102.181 29.625 102.331 30.27 102.331 30.99C102.331 31.71 102.181 32.355 101.881 32.925C101.591 33.495 101.181 33.94 100.651 34.26C100.131 34.58 99.5359 34.74 98.8659 34.74ZM98.8359 33.81C99.3159 33.81 99.7409 33.69 100.111 33.45C100.491 33.21 100.786 32.875 100.996 32.445C101.206 32.015 101.311 31.53 101.311 30.99C101.311 30.45 101.206 29.965 100.996 29.535C100.786 29.105 100.491 28.77 100.111 28.53C99.7409 28.29 99.3159 28.17 98.8359 28.17C98.3659 28.17 97.9459 28.29 97.5759 28.53C97.2059 28.77 96.9159 29.105 96.7059 29.535C96.4959 29.955 96.3909 30.435 96.3909 30.975C96.3909 31.525 96.4959 32.015 96.7059 32.445C96.9159 32.875 97.2059 33.21 97.5759 33.45C97.9459 33.69 98.3659 33.81 98.8359 33.81ZM106.67 27.24C107.16 27.24 107.61 27.34 108.02 27.54C108.44 27.74 108.77 28.035 109.01 28.425C109.26 28.815 109.385 29.275 109.385 29.805V34.5H108.365V30.255C108.365 28.865 107.745 28.17 106.505 28.17C105.785 28.17 105.245 28.425 104.885 28.935C104.525 29.445 104.345 30.13 104.345 30.99V34.5H103.325V27.48H104.345V28.65C104.585 28.2 104.9 27.855 105.29 27.615C105.69 27.365 106.15 27.24 106.67 27.24ZM113.406 34.74C112.726 34.74 112.126 34.595 111.606 34.305C111.096 34.015 110.706 33.605 110.436 33.075L111.351 32.625C111.721 33.415 112.446 33.81 113.526 33.81C114.046 33.81 114.476 33.715 114.816 33.525C115.156 33.335 115.326 33.04 115.326 32.64C115.326 32.23 115.186 31.925 114.906 31.725C114.636 31.525 114.156 31.395 113.466 31.335C112.506 31.255 111.816 31.04 111.396 30.69C110.986 30.34 110.781 29.875 110.781 29.295C110.781 28.645 111.016 28.14 111.486 27.78C111.956 27.42 112.601 27.24 113.421 27.24C114.811 27.24 115.756 27.79 116.256 28.89L115.341 29.34C115.171 28.94 114.921 28.645 114.591 28.455C114.271 28.265 113.856 28.17 113.346 28.17C112.826 28.17 112.426 28.265 112.146 28.455C111.876 28.645 111.741 28.915 111.741 29.265C111.741 29.595 111.886 29.865 112.176 30.075C112.476 30.275 112.986 30.405 113.706 30.465C114.596 30.545 115.256 30.765 115.686 31.125C116.126 31.475 116.346 31.94 116.346 32.52C116.346 32.99 116.211 33.395 115.941 33.735C115.671 34.065 115.311 34.315 114.861 34.485C114.411 34.655 113.926 34.74 113.406 34.74Z" fill="black"/>
<path d="M95.1913 1.5L95.8907 5.2646L88.7213 5.26471V3.14712L89.4208 1.50011L92.2186 1.9006L95.1913 1.5Z" fill="#2C8469"/>
<path d="M84 5.26471L86.8387 5.5L88.7213 5.26471M100 5.26471L97.9355 5.02942L95.8907 5.2646M95.8907 5.2646L95.1913 1.5L92.2186 1.9006L89.4208 1.50011L88.7213 3.14712V5.26471M95.8907 5.2646L88.7213 5.26471" stroke="black"/>
</svg>
